<?xml version="1.0" encoding="UTF-8"?>
<!--Generator: Apple Native CoreSVG 341-->
<!DOCTYPE svg
PUBLIC "-//W3C//DTD SVG 1.1//EN"
       "http://www.w3.org/Graphics/SVG/1.1/DTD/svg11.dtd">
<svg version="1.1" xmlns="http://www.w3.org/2000/svg" xmlns:xlink="http://www.w3.org/1999/xlink" viewBox="0 0 20.2832 19.9316">
 <defs>
  <linearGradient id="gradient1" x1="5" y1="0.00976562" x2="5" y2="19.9316" gradientUnits="userSpaceOnUse">
   <stop offset="0" stop-color="#3fa5ff" stop-opacity="1"/>
   <stop offset="1" stop-color="#0088ff" stop-opacity="1"/>
  </linearGradient>
  <linearGradient id="gradient2" x1="5" y1="0.00976562" x2="5" y2="19.9316" gradientUnits="userSpaceOnUse">
   <stop offset="0" stop-color="white" stop-opacity="1"/>
   <stop offset="1" stop-color="#e2e2e2" stop-opacity="1"/>
  </linearGradient>
 </defs>
 <g>
  <rect height="19.9316" opacity="0" width="20.2832" x="0" y="0"/>
  <path d="M9.96094 19.9316C15.459 19.9316 19.9219 15.4688 19.9219 9.9707C19.9219 4.48242 15.459 0.00976562 9.96094 0.00976562C4.47266 0.00976562 0 4.48242 0 9.9707C0 15.4688 4.47266 19.9316 9.96094 19.9316Z" fill="url(#gradient1)"/>
  <path d="M5.87891 14.541C4.85352 14.541 4.33594 14.0332 4.33594 13.0371L4.33594 6.69922C4.33594 5.72266 4.82422 5.23438 5.67383 5.23438L7.1582 5.23438C7.61719 5.23438 7.86133 5.32227 8.19336 5.58594L8.50586 5.83008C8.74023 6.03516 8.92578 6.12305 9.27734 6.12305L14.0625 6.12305C15.0879 6.12305 15.6055 6.63086 15.6055 7.63672L15.6055 13.0371C15.6055 14.0332 15.0977 14.541 14.2188 14.541ZM5.24414 8.0957L14.6875 8.0957L14.6875 7.83203C14.6875 7.51953 14.4824 7.31445 14.1113 7.31445L5.83008 7.31445C5.45898 7.31445 5.24414 7.51953 5.24414 7.83203Z" fill="url(#gradient2)"/>
 </g>
</svg>
